<?xml version="1.0" encoding="UTF-8"?>
<svg version="1.1" xmlns="http://www.w3.org/2000/svg" width="48" height="49">
<path d="M0 0 C15.84 0 31.68 0 48 0 C48 16.17 48 32.34 48 49 C32.16 49 16.32 49 0 49 C0 32.83 0 16.66 0 0 Z " fill="#FFFFFF" transform="translate(0,0)"/>
<path d="M0 0 C2.50748367 0.41791395 4.61184386 0.78416384 6.84667969 2.02685547 C9.4581888 3.20706809 11.34489174 3.22854777 14.203125 3.1953125 C15.08645508 3.19031738 15.96978516 3.18532227 16.87988281 3.18017578 C17.99202148 3.16196777 19.10416016 3.14375977 20.25 3.125 C23.7975 3.08375 27.345 3.0425 31 3 C31 11.91 31 20.82 31 30 C32.98 30.66 34.96 31.32 37 32 C37 33.32 37 34.64 37 36 C32.79196298 36.33714509 28.58352782 36.66904245 24.375 37 C23.18519531 37.09539063 21.99539062 37.19078125 20.76953125 37.2890625 C19.61582031 37.37929688 18.46210938 37.46953125 17.2734375 37.5625 C16.21560059 37.64628906 15.15776367 37.73007812 14.06787109 37.81640625 C7.86948788 38.18734244 4.18718575 37.96649907 -1.375 35 C-2.43460937 34.443125 -3.49421875 33.88625 -4.5859375 33.3125 C-5.38257813 32.879375 -6.17921875 32.44625 -7 32 C-6.67 30.68 -6.34 29.36 -6 28 C-4.35 28 -2.7 28 -1 28 C-1.00523682 27.25838623 -1.01047363 26.51677246 -1.01586914 25.75268555 C-1.03663614 22.39763229 -1.0496593 19.04259256 -1.0625 15.6875 C-1.07087891 14.52025391 -1.07925781 13.35300781 -1.08789062 12.15039062 C-1.09111328 11.03212891 -1.09433594 9.91386719 -1.09765625 8.76171875 C-1.10289307 7.73006592 -1.10812988 6.69841309 -1.11352539 5.63549805 C-1 3 -1 3 0 0 Z " fill="#D0D0F5" transform="translate(9,7)"/>
<path d="M0 0 C3.52069985 0.58678331 5.71299843 1.35649921 9 3 C9.33 11.91 9.66 20.82 10 30 C10.66 30 11.32 30 12 30 C12.66 28.02 13.32 26.04 14 24 C14.33 24 14.66 24 15 24 C15 26.64 15 29.28 15 32 C12.15697309 33.42151345 10.16974528 33.23922606 7 33 C4.65175298 32.0355414 2.31808364 31.03485877 0 30 C-1.98821313 29.60235737 -3.98732362 29.24544834 -6 29 C-6 28.67 -6 28.34 -6 28 C-4.35 28 -2.7 28 -1 28 C-1.00523682 27.25838623 -1.01047363 26.51677246 -1.01586914 25.75268555 C-1.03663614 22.39763229 -1.0496593 19.04259256 -1.0625 15.6875 C-1.07087891 14.52025391 -1.07925781 13.35300781 -1.08789062 12.15039062 C-1.09111328 11.03212891 -1.09433594 9.91386719 -1.09765625 8.76171875 C-1.10289307 7.73006592 -1.10812988 6.69841309 -1.11352539 5.63549805 C-1 3 -1 3 0 0 Z " fill="#CBCAEF" transform="translate(9,7)"/>
<path d="M0 0 C0.33 0 0.66 0 1 0 C1 2.64 1 5.28 1 8 C6.28 8 11.56 8 17 8 C17.33 7.34 17.66 6.68 18 6 C20.475 7.485 20.475 7.485 23 9 C22.67 9.99 22.34 10.98 22 12 C17.79196298 12.33714509 13.58352782 12.66904245 9.375 13 C8.18519531 13.09539063 6.99539062 13.19078125 5.76953125 13.2890625 C4.61582031 13.37929688 3.46210938 13.46953125 2.2734375 13.5625 C1.21560059 13.64628906 0.15776367 13.73007812 -0.93212891 13.81640625 C-7.13051212 14.18734244 -10.81281425 13.96649907 -16.375 11 C-17.43460938 10.443125 -18.49421875 9.88625 -19.5859375 9.3125 C-20.38257813 8.879375 -21.17921875 8.44625 -22 8 C-22 7.01 -22 6.02 -22 5 C-17.93966448 4.75140803 -15.32716921 4.85723526 -11.5625 6.5 C-7.28569686 8.30075922 -4.58284624 8.24120243 0 8 C0 5.36 0 2.72 0 0 Z " fill="#8684F7" transform="translate(24,31)"/>
<path d="M0 0 C1.670625 0.2475 1.670625 0.2475 3.375 0.5 C6.94351384 1.26487734 6.94351384 1.26487734 10 0 C10 0.66 10 1.32 10 2 C10.99 2.33 11.98 2.66 13 3 C12.34 4.65 11.68 6.3 11 8 C11.66 8 12.32 8 13 8 C12.34 9.32 11.68 10.64 11 12 C8.33333333 12 5.66666667 12 3 12 C0.84971696 12.94978897 0.84971696 12.94978897 -1 14 C-1.66 12.68 -2.32 11.36 -3 10 C-2.01 8.68 -1.02 7.36 0 6 C-0.66 6 -1.32 6 -2 6 C-1.125 1.125 -1.125 1.125 0 0 Z " fill="#BFBFEE" transform="translate(23,16)"/>
<path d="M0 0 C0.70125 0.680625 1.4025 1.36125 2.125 2.0625 C2.125 2.3925 2.125 2.7225 2.125 3.0625 C-8.6080779 4.75937478 -19.26423257 5.8966786 -28.875 0.0625 C-29.205 1.0525 -29.535 2.0425 -29.875 3.0625 C-29.875 1.7425 -29.875 0.4225 -29.875 -0.9375 C-5.31063403 -3.45692215 -5.31063403 -3.45692215 0 0 Z " fill="#E6E6FD" transform="translate(37.875,6.9375)"/>
<path d="M0 0 C3.1875 -0.3125 3.1875 -0.3125 7 0 C7.75369873 0.81686279 8.50739746 1.63372559 9.28393555 2.4753418 C12.76171051 5.70803132 14.58230258 5.64916423 19.26953125 5.70703125 C20.29103523 5.72971321 20.29103523 5.72971321 21.33317566 5.75285339 C23.49329063 5.79560078 25.65200493 5.80455435 27.8125 5.8125 C29.28324002 5.83565489 30.75394698 5.86102231 32.22460938 5.88867188 C35.81637971 5.9513916 39.40768404 5.98383125 43 6 C43 6.33 43 6.66 43 7 C38.95865433 7.3373021 34.91687763 7.66913834 30.875 8 C29.73289062 8.09539063 28.59078125 8.19078125 27.4140625 8.2890625 C25.75117187 8.42441406 25.75117187 8.42441406 24.0546875 8.5625 C22.53077393 8.68818359 22.53077393 8.68818359 20.97607422 8.81640625 C14.81608771 9.19641526 11.15217961 8.94782912 5.625 6 C4.56539063 5.443125 3.50578125 4.88625 2.4140625 4.3125 C1.61742187 3.879375 0.82078125 3.44625 0 3 C0 2.01 0 1.02 0 0 Z " fill="#6E6DDC" transform="translate(2,36)"/>
<path d="M0 0 C3.3 0.33 6.6 0.66 10 1 C10 3.31 10 5.62 10 8 C12.31 8 14.62 8 17 8 C17 8.33 17 8.66 17 9 C11.72 9 6.44 9 1 9 C0.67 6.03 0.34 3.06 0 0 Z " fill="#B1B0F9" transform="translate(24,30)"/>
<path d="M0 0 C1.98 0.99 3.96 1.98 6 3 C5.67 3.66 5.34 4.32 5 5 C2.06167355 4.88618103 -0.8751065 4.75943449 -3.8125 4.625 C-5.06256836 4.57859375 -5.06256836 4.57859375 -6.33789062 4.53125 C-7.14033203 4.49257813 -7.94277344 4.45390625 -8.76953125 4.4140625 C-9.87711792 4.36693115 -9.87711792 4.36693115 -11.00708008 4.31884766 C-13 4 -13 4 -16 2 C-10.72 2 -5.44 2 0 2 C0 1.34 0 0.68 0 0 Z " fill="#9492FC" transform="translate(41,37)"/>
<path d="M0 0 C0.33 0.66 0.66 1.32 1 2 C3.52733235 2.65555119 3.52733235 2.65555119 6 3 C6 3.66 6 4.32 6 5 C-0.0546875 5.1953125 -0.0546875 5.1953125 -2 5 C-2.66 4.34 -3.32 3.68 -4 3 C-2.68 2.01 -1.36 1.02 0 0 Z " fill="#C7C7F8" transform="translate(28,26)"/>
<path d="M0 0 C0.33 0 0.66 0 1 0 C1 2.64 1 5.28 1 8 C-1.70879335 9.35439668 -4.00933268 9.06501451 -7 9 C-5 7 -5 7 -2 6 C-0.77479736 2.99152582 -0.77479736 2.99152582 0 0 Z " fill="#B1B2F1" transform="translate(23,31)"/>
<path d="M0 0 C2.475 0.99 2.475 0.99 5 2 C3.68 3.32 2.36 4.64 1 6 C0.01 4.68 -0.98 3.36 -2 2 C-1.34 1.34 -0.68 0.68 0 0 Z " fill="#AFB0E0" transform="translate(22,24)"/>
<path d="M0 0 C0.66 0 1.32 0 2 0 C2 0.66 2 1.32 2 2 C2.99 2.33 3.98 2.66 5 3 C2 5 2 5 -1 5 C-0.67 3.35 -0.34 1.7 0 0 Z " fill="#AEAEDC" transform="translate(22,17)"/>
<path d="M0 0 C0.66 0 1.32 0 2 0 C2 0.66 2 1.32 2 2 C2.99 2.33 3.98 2.66 5 3 C2 5 2 5 -1 5 C-0.67 3.35 -0.34 1.7 0 0 Z " fill="#A9A9DD" transform="translate(31,16)"/>
</svg>
