<svg width="20" height="20" viewBox="0 0 20 20" fill="none" xmlns="http://www.w3.org/2000/svg">
<path d="M7.29667 3.54621L8.30617 2.09548C8.49312 1.82682 8.7997 1.66666 9.127 1.66666H10.4575C10.7835 1.66666 11.0891 1.82564 11.2763 2.09265L12.2747 3.51692M7.29667 3.54621C7.00763 3.95858 6.52718 4.16065 6.01722 4.12462M7.29667 3.54621C7.00622 3.95759 6.52718 4.16232 6.01722 4.12462M6.01722 4.12462L4.22814 4.0123C3.90729 3.99216 3.59632 4.12749 3.3924 4.37602L2.55394 5.39791C2.33774 5.6614 2.27064 6.01687 2.3759 6.34105L2.89428 7.93753M2.89428 7.93753C2.96838 8.1778 2.97787 8.43522 2.92483 8.67833M2.89428 7.93753C2.96944 8.17737 2.97857 8.43427 2.92448 8.68082M2.92483 8.67833C2.8711 8.91856 2.7559 9.1454 2.58487 9.32909M2.92483 8.67833L2.92448 8.68082M2.58487 9.32909L1.4074 10.5955C1.179 10.8411 1.08897 11.1849 1.16766 11.511L1.4612 12.7274C1.53963 13.0524 1.77527 13.3167 2.08917 13.4318L3.70698 14.0247C3.94439 14.1166 4.1495 14.2659 4.30473 14.454M2.58487 9.32909C2.75696 9.14691 2.8711 8.9208 2.92448 8.68082M4.30473 14.454C4.45891 14.6427 4.56392 14.8704 4.60466 15.117M4.30473 14.454C4.46032 14.6427 4.56568 14.8698 4.60466 15.117M4.30473 14.454L4.30227 14.4513C4.29209 14.439 4.2812 14.4261 4.27066 14.4141M4.60466 15.117L4.88019 16.8094C4.93346 17.1366 5.14541 17.4161 5.44608 17.5557L6.64533 18.1125C6.9364 18.2477 7.27464 18.2349 7.5547 18.0782L9.07519 17.2276M9.07519 17.2276C9.2961 17.1035 9.54265 17.0412 9.7892 17.0409M9.07519 17.2276C9.16264 17.1778 9.25431 17.1381 9.34843 17.1083C9.49137 17.063 9.64029 17.0406 9.7892 17.0409M9.7892 17.0409C9.91739 17.0412 10.0456 17.0582 10.1706 17.0917C10.2869 17.1228 10.3999 17.1682 10.5071 17.2276M9.7892 17.0409C10.0368 17.0406 10.2848 17.1028 10.5071 17.2276M10.5071 17.2276L12.102 18.091C12.3833 18.2432 12.7204 18.2518 13.0091 18.1139L14.2028 17.5438C14.5024 17.4007 14.7114 17.1182 14.7607 16.7899L15.0071 15.1483M15.0071 15.1483C15.0461 14.9004 15.1497 14.671 15.3035 14.4807M15.0071 15.1483C15.0447 14.8998 15.149 14.6707 15.3035 14.4807M15.3035 14.4807C15.4563 14.2923 15.6589 14.1422 15.895 14.0494M15.3035 14.4807C15.4559 14.2916 15.6579 14.1411 15.895 14.0494M15.895 14.0494L17.5321 13.4078C17.84 13.2871 18.0684 13.0219 18.1421 12.6995L18.4243 11.4639C18.4977 11.1423 18.4078 10.8051 18.184 10.5628L16.9977 9.27829M16.9977 9.27829C16.8235 9.09396 16.702 8.87378 16.643 8.63977M16.9977 9.27829C16.9159 9.1922 16.8457 9.09809 16.7884 8.9983C16.7231 8.88499 16.6743 8.76437 16.643 8.63977M16.643 8.63977C16.5851 8.40743 16.5886 8.16123 16.662 7.92293L17.174 6.28166C17.2744 5.95986 17.2059 5.60913 16.9919 5.34875L16.1768 4.35746C15.9705 4.10657 15.6553 3.97149 15.3313 3.99522L13.5647 4.12462M13.5647 4.12462C13.3111 4.14253 13.0618 4.09422 12.8398 3.99031M13.5647 4.12462C13.3108 4.14356 13.0618 4.09487 12.8398 3.99031M12.8398 3.99031C12.6164 3.88507 12.4205 3.72324 12.2747 3.51692M12.8398 3.99031C12.6161 3.88546 12.4197 3.72406 12.2747 3.51692M2.92448 8.68082L2.92519 8.67717M12.6133 10.0088C12.6133 11.563 11.325 12.8228 9.73617 12.8228C8.1473 12.8228 6.85907 11.563 6.85907 10.0088C6.85907 8.45471 8.1473 7.19488 9.73617 7.19488C11.325 7.19488 12.6133 8.45471 12.6133 10.0088Z" stroke="#6B7280" stroke-width="1.5"/>
</svg>
